<?xml version="1.0" standalone="no"?>
<!DOCTYPE svg PUBLIC "-//W3C//DTD SVG 20010904//EN"
 "http://www.w3.org/TR/2001/REC-SVG-20010904/DTD/svg10.dtd">
<svg version="1.0" xmlns="http://www.w3.org/2000/svg"
 width="1613.000000pt" height="860.000000pt" viewBox="0 0 1613.000000 860.000000"
 preserveAspectRatio="xMidYMid meet">

<g transform="translate(0.000000,860.000000) scale(0.100000,-0.100000)"
fill="#000000" stroke="none">
<path d="M5771 8596 c2 -2 83 -31 179 -65 300 -104 289 -102 1581 -256 256
-30 326 -35 520 -35 192 0 257 4 449 30 178 23 350 36 815 60 526 27 610 34
775 61 176 29 583 117 830 178 l115 29 -2634 1 c-1449 1 -2632 -1 -2630 -3z"/>
<path d="M12610 7722 c-8 -3 -20 -12 -26 -20 -7 -9 -21 -13 -37 -10 -15 3 -27
1 -27 -4 0 -5 -5 -6 -10 -3 -6 4 -9 1 -8 -7 2 -7 -5 -12 -14 -12 -10 1 -18 -2
-18 -7 0 -5 -11 -9 -25 -9 -14 0 -25 4 -25 9 0 9 -8 11 -58 12 -24 0 -54 -28
-48 -46 1 -5 -6 -18 -15 -30 -10 -11 -25 -29 -33 -40 -15 -19 -15 -19 -16 8 0
15 -7 30 -15 33 -9 4 -14 14 -13 23 4 25 -38 27 -45 1 -3 -13 -10 -18 -21 -14
-17 6 -76 -16 -76 -29 0 -5 -4 -5 -10 -2 -5 3 -10 2 -10 -4 0 -7 -16 -8 -43
-5 -38 6 -44 4 -56 -20 -17 -30 -31 -34 -31 -8 0 11 -8 18 -20 19 -11 1 -20
-2 -20 -8 0 -5 -9 -9 -20 -9 -11 0 -20 -4 -20 -10 0 -5 -9 -10 -19 -10 -14 0
-18 5 -14 20 4 15 0 20 -16 20 -11 0 -21 -6 -21 -14 0 -9 -7 -12 -19 -9 -10 2
-25 -2 -33 -11 -9 -8 -18 -12 -22 -9 -3 4 -6 -3 -6 -14 0 -16 -6 -20 -27 -20
-15 0 -29 -6 -31 -12 -2 -6 -17 -11 -33 -11 -19 0 -29 -5 -29 -15 0 -8 -14
-17 -35 -21 -19 -3 -37 -10 -40 -14 -3 -5 -14 -6 -24 -3 -13 3 -21 -2 -26 -17
-4 -12 -9 -19 -13 -16 -3 3 -12 -3 -19 -14 -8 -11 -18 -18 -23 -15 -5 3 -20 1
-35 -5 -24 -9 -26 -8 -20 10 5 16 2 20 -19 20 -14 0 -26 -5 -26 -11 0 -6 -9
-8 -20 -4 -12 4 -26 2 -33 -3 -7 -5 -24 -12 -38 -16 -15 -3 -29 -14 -32 -25
-3 -14 -11 -17 -31 -14 -20 4 -26 1 -26 -13 0 -11 -3 -15 -8 -9 -17 25 -98
-10 -125 -54 -13 -21 -17 -22 -17 -8 0 10 -4 16 -9 12 -5 -3 -12 -1 -15 4 -15
24 -84 -10 -86 -41 0 -4 -6 -5 -14 -2 -9 3 -17 -3 -21 -16 -6 -20 -8 -20 -19
-4 -10 12 -18 15 -32 9 -10 -5 -23 -9 -29 -10 -79 -10 -114 -19 -118 -30 -3
-7 -15 -11 -29 -8 -18 4 -27 -1 -36 -21 -7 -16 -8 -28 -2 -31 6 -4 10 -12 9
-18 0 -9 -2 -9 -5 0 -4 8 -13 9 -27 4 -24 -9 -67 3 -67 19 0 17 -29 11 -39 -9
-8 -14 -19 -18 -51 -15 -28 2 -40 -1 -40 -10 0 -8 -9 -12 -22 -9 -17 3 -28 -5
-44 -30 -12 -18 -28 -34 -35 -34 -29 -1 -103 -25 -116 -39 -8 -8 -18 -12 -23
-9 -5 3 -20 1 -34 -5 -21 -7 -26 -6 -26 5 0 30 -37 15 -59 -25 -13 -24 -27
-37 -35 -34 -7 3 -24 43 -36 90 -13 46 -27 84 -33 84 -5 0 -7 -11 -3 -25 3
-14 9 -36 12 -50 4 -14 0 -45 -7 -70 -11 -36 -18 -45 -35 -45 -12 0 -29 -3
-38 -6 -11 -4 -16 -1 -16 10 0 22 -23 20 -45 -4 -13 -14 -28 -19 -50 -17 -34
4 -63 -23 -49 -44 4 -7 -2 -6 -16 1 -24 13 -70 5 -83 -13 -6 -9 -10 -9 -14 1
-9 22 -39 12 -54 -19 l-14 -30 -24 20 c-14 13 -32 19 -42 16 -10 -4 -39 1 -64
9 -64 22 -89 20 -125 -10 -24 -20 -28 -29 -18 -35 22 -15 59 -10 85 11 40 31
55 24 21 -10 -16 -17 -33 -28 -38 -25 -4 3 -13 -1 -19 -9 -12 -14 -23 -15 -53
-2 -11 5 -24 0 -37 -13 -12 -12 -34 -21 -50 -21 -22 0 -32 -7 -43 -30 l-14
-30 -22 20 c-26 24 -49 25 -92 3 -24 -12 -35 -13 -38 -5 -6 20 -28 13 -42 -13
-18 -33 -50 -34 -50 -1 0 35 -16 41 -47 17 -19 -15 -29 -18 -39 -11 -9 8 -16
5 -28 -12 l-16 -22 -16 22 c-17 24 -43 29 -62 10 -13 -13 -19 -2 -24 42 -4 29
-44 41 -54 16 -8 -21 -32 -20 -37 2 -2 10 -8 1 -15 -24 -15 -51 -36 -72 -56
-55 -7 6 -20 9 -29 5 -9 -3 -30 5 -47 17 -24 19 -33 21 -39 10 -7 -10 -12 -11
-29 0 -18 11 -24 10 -41 -5 -19 -17 -21 -17 -27 -2 -3 9 -10 14 -14 11 -5 -3
-16 2 -25 12 -14 14 -20 15 -38 4 -17 -11 -22 -11 -33 4 -11 15 -19 16 -55 7
-38 -10 -44 -9 -60 11 -10 12 -18 28 -19 35 0 7 -5 10 -10 7 -15 -9 -50 4 -50
20 0 22 -38 24 -65 3 -25 -19 -25 -19 -25 1 0 12 -4 21 -10 21 -5 0 -10 7 -10
15 0 8 -7 16 -15 16 -8 1 -21 2 -27 3 -7 1 -25 -1 -40 -5 -16 -4 -28 -4 -28
-1 0 4 -11 19 -25 34 -18 20 -32 25 -51 22 -16 -3 -23 -1 -19 6 9 14 -28 13
-44 -2 -10 -11 -12 -10 -9 2 2 10 -5 15 -22 15 -15 0 -26 7 -28 16 -2 11 -10
15 -27 11 -15 -2 -25 0 -25 7 0 14 -37 15 -42 1 -4 -14 -78 21 -78 37 0 16
-12 16 -45 1 -22 -10 -32 -9 -61 7 -19 10 -34 22 -34 27 0 5 -4 6 -10 3 -5 -3
-10 -2 -10 3 0 16 -31 23 -46 11 -10 -8 -14 -8 -14 -1 0 17 -83 39 -88 24 -5
-17 -62 -15 -62 2 0 9 -7 12 -20 9 -11 -3 -20 -9 -20 -13 0 -15 -41 -19 -47
-4 -3 9 -10 11 -20 5 -17 -9 -53 -3 -53 8 0 15 -85 7 -97 -8 -11 -14 -12 -14
-13 2 0 19 -35 24 -45 6 -4 -6 -13 -8 -20 -5 -7 2 -28 -6 -46 -18 -19 -13 -40
-21 -46 -19 -8 3 -13 -4 -13 -15 0 -11 -6 -19 -12 -17 -42 10 -58 19 -58 31 0
23 -22 16 -50 -16 -15 -17 -38 -33 -50 -35 -13 -3 -28 -9 -34 -15 -15 -15 -34
-12 -38 7 -3 14 -8 12 -32 -10 -16 -15 -34 -27 -39 -27 -6 0 -19 -7 -29 -17
-11 -9 -18 -11 -18 -5 0 15 -36 16 -45 2 -3 -5 -15 -10 -25 -10 -10 0 -22 -9
-25 -20 -3 -11 -17 -23 -30 -26 -13 -3 -31 -14 -41 -25 -9 -10 -23 -19 -31
-19 -8 0 -24 -11 -36 -24 -13 -13 -36 -26 -52 -28 -23 -2 -31 -10 -37 -34 -7
-27 -11 -30 -38 -26 -18 3 -30 0 -30 -7 0 -6 -11 -11 -23 -11 -27 0 -51 -22
-65 -61 -8 -20 -17 -26 -43 -27 -36 -1 -59 -23 -53 -50 2 -9 -5 -28 -17 -42
-11 -14 -18 -20 -15 -14 3 7 -1 15 -10 18 -33 13 -51 5 -65 -26 -10 -25 -19
-32 -36 -30 -16 2 -24 -5 -33 -32 -7 -22 -23 -41 -41 -51 -16 -8 -44 -23 -62
-32 -17 -9 -48 -34 -68 -55 -19 -21 -39 -38 -43 -38 -5 0 -19 -10 -32 -22 -13
-13 -34 -34 -48 -48 -15 -13 -26 -33 -26 -42 0 -12 -8 -18 -24 -18 -21 0 -42
-23 -38 -42 3 -11 -47 -58 -62 -58 -6 0 -21 -7 -32 -15 -10 -8 -29 -15 -41
-15 -16 0 -25 -8 -29 -25 -3 -14 -11 -25 -16 -25 -10 0 -51 -34 -140 -116 -20
-19 -44 -34 -52 -34 -9 0 -16 -5 -16 -11 0 -5 -14 -15 -30 -20 -17 -6 -30 -14
-30 -19 0 -4 -13 -10 -28 -13 -15 -3 -33 -16 -40 -29 -9 -15 -22 -23 -40 -23
-15 0 -40 -4 -55 -8 -24 -7 -30 -4 -34 13 -3 11 -12 20 -19 20 -8 0 -14 5 -14
10 0 6 -11 10 -25 10 -16 0 -25 6 -25 15 0 18 -50 21 -67 4 -8 -8 -16 -8 -31
2 -27 20 -26 27 6 54 31 26 34 60 10 107 l-15 27 -18 -37 c-18 -35 -19 -36
-23 -12 -5 34 -22 50 -22 22 0 -28 -26 -29 -40 -2 -6 11 -15 20 -21 20 -6 0
-6 -8 1 -21 24 -43 -15 -25 -39 19 -5 9 -13 14 -16 10 -9 -9 -9 -98 0 -121 5
-13 3 -16 -8 -11 -12 4 -14 1 -10 -15 9 -33 -15 -25 -32 12 -8 17 -13 24 -11
15 6 -20 -15 -68 -30 -68 -5 0 -15 5 -20 10 -6 6 -21 13 -35 15 -13 3 -25 9
-27 15 -2 5 -12 10 -22 10 -10 0 -28 14 -40 30 -15 22 -30 30 -51 30 -18 0
-29 5 -29 14 0 15 82 32 100 21 5 -3 10 -1 10 4 0 6 -9 11 -19 11 -11 0 -26 9
-34 20 -8 11 -17 17 -20 13 -4 -3 -7 1 -7 10 0 13 -9 17 -35 17 -19 0 -35 4
-35 8 0 15 -38 10 -54 -7 -23 -25 -80 -16 -95 15 -6 13 -26 32 -46 41 -19 9
-35 21 -35 27 0 6 -5 4 -10 -4 -8 -13 -11 -12 -23 4 -8 11 -19 16 -25 13 -6
-5 -8 0 -5 13 4 14 0 20 -11 20 -9 0 -16 -6 -16 -12 0 -7 -14 2 -30 21 -21 24
-36 32 -50 28 -13 -3 -20 0 -20 9 0 8 -5 14 -11 14 -5 0 -7 5 -4 10 3 6 -3 10
-14 10 -12 0 -26 9 -33 20 -7 11 -18 20 -25 20 -7 0 -16 8 -22 18 -9 15 -13
15 -31 4 -12 -8 -19 -9 -15 -3 3 6 1 11 -5 11 -6 0 -8 5 -5 10 3 6 -1 13 -9
16 -9 3 -13 10 -10 15 3 5 -6 9 -20 9 -14 0 -26 4 -26 9 0 5 -13 11 -30 14
-18 4 -30 13 -30 22 0 8 -9 15 -21 15 -11 0 -17 5 -14 10 3 6 -3 10 -15 10
-11 0 -23 7 -26 15 -4 8 -12 15 -18 15 -7 0 -27 11 -46 25 -19 14 -47 25 -62
25 -15 0 -28 3 -28 8 0 17 -53 62 -74 62 -14 0 -34 13 -49 31 -19 23 -32 30
-46 26 -12 -3 -21 -1 -21 4 0 5 -6 9 -12 9 -7 0 -22 13 -33 29 -14 21 -23 27
-34 21 -11 -6 -22 -1 -38 16 -12 13 -29 24 -38 24 -9 0 -19 8 -22 18 -2 10
-14 19 -25 19 -12 1 -25 7 -29 14 -4 7 -14 9 -23 6 -9 -4 -16 -2 -16 3 0 6 -7
10 -16 10 -8 0 -13 4 -10 9 6 9 -36 31 -59 31 -8 0 -15 5 -15 11 0 7 -9 9 -21
6 -13 -3 -22 0 -26 10 -4 10 -13 13 -29 9 -18 -5 -31 1 -54 24 -16 16 -36 30
-45 30 -8 0 -15 5 -15 11 0 7 -11 9 -30 6 -22 -5 -30 -3 -30 7 0 8 -7 16 -15
20 -8 3 -15 11 -15 19 0 10 -12 12 -50 7 -34 -4 -54 -3 -60 6 -8 8 -6 13 5 18
18 7 10 29 -8 23 -7 -2 -18 3 -26 10 -11 12 -16 11 -32 -3 -18 -16 -20 -16
-39 1 -11 10 -20 24 -20 31 0 14 -18 12 -63 -5 -16 -6 -26 -7 -23 -2 3 5 -1
11 -9 15 -8 3 -15 12 -15 21 0 8 -9 15 -20 15 -12 0 -20 7 -20 16 0 12 -7 14
-30 9 -25 -6 -29 -4 -23 10 5 15 1 16 -28 10 -19 -4 -35 -11 -37 -16 -2 -5 -8
-9 -13 -9 -4 0 -6 7 -3 15 5 11 -1 15 -19 15 -37 0 -56 10 -50 26 3 9 -7 15
-36 20 -22 4 -38 10 -35 15 11 19 -27 21 -41 3 -8 -11 -14 -14 -15 -6 0 6 -7
12 -15 12 -8 0 -15 7 -15 15 0 8 -9 15 -20 15 -11 0 -20 -7 -20 -15 0 -8 -7
-15 -15 -15 -8 0 -12 6 -9 14 3 8 -4 16 -20 20 -17 4 -23 11 -20 20 4 11 -2
14 -25 11 -18 -2 -29 0 -26 4 4 8 -24 26 -30 19 -17 -21 -23 -46 -13 -56 9 -9
9 -12 1 -12 -7 0 -21 19 -33 43 -22 43 -59 60 -61 27 0 -10 -2 -11 -6 -2 -6
14 -33 16 -33 2 0 -14 -13 -12 -36 6 -10 8 -13 13 -6 9 7 -3 12 0 12 8 0 8
-10 17 -23 21 -33 9 -37 8 -37 -9 0 -8 -7 -15 -15 -15 -8 0 -15 7 -15 15 0 19
-15 19 -44 0 -22 -15 -25 -14 -54 20 -30 34 -52 45 -52 26 0 -5 -9 -11 -20
-14 -11 -3 -20 -1 -20 4 0 5 -7 9 -15 9 -8 0 -15 5 -15 11 0 6 -9 9 -20 6 -11
-3 -20 -1 -20 4 0 4 -7 6 -15 3 -8 -4 -15 -1 -15 5 0 6 -7 11 -15 11 -8 0 -25
6 -36 13 -15 8 -23 9 -26 1 -4 -12 -62 -7 -79 7 -6 5 -19 7 -28 3 -9 -3 -16
-1 -16 5 0 6 -3 10 -7 10 -22 -4 -32 3 -27 16 4 10 0 15 -14 15 -11 0 -22 -7
-26 -15 -8 -22 -36 -18 -36 5 0 36 -34 23 -53 -20 -16 -38 -17 -248 -17 -3710
l0 -3670 4925 0 4926 0 -16 30 c-25 49 -17 56 16 12 l31 -42 81 0 82 0 -75 41
c-41 22 -87 50 -102 61 -16 11 -36 17 -44 14 -11 -4 -20 5 -30 30 -8 19 -12
39 -8 45 3 6 14 33 23 60 l18 50 28 -40 c15 -22 52 -59 82 -82 54 -41 200
-119 222 -119 6 0 11 -11 11 -24 0 -14 5 -28 10 -31 6 -3 10 3 10 14 0 27 30
28 37 1 3 -11 9 -20 14 -20 5 0 6 6 3 14 -5 13 1 13 42 0 40 -12 465 -14 2946
-14 l2898 0 0 3468 0 3468 -25 2 c-16 1 -25 -3 -25 -13 0 -8 -8 -12 -20 -10
-14 3 -20 -2 -20 -15 0 -10 -7 -20 -15 -24 -9 -3 -15 0 -15 10 0 9 5 12 13 8
8 -5 8 -2 -2 9 -7 9 -20 17 -28 17 -10 0 -12 6 -8 20 6 20 -5 25 -47 22 -16
-2 -21 7 -20 28 0 3 -11 6 -24 6 -13 1 -24 -3 -24 -10 -1 -27 -30 -48 -69 -50
-40 -2 -41 -2 -41 31 0 22 -4 32 -11 27 -7 -4 -9 2 -7 17 2 15 -4 27 -17 34
-11 5 -19 17 -17 25 2 10 -6 16 -20 17 -26 3 -51 -37 -41 -64 4 -11 1 -14 -13
-11 -11 2 -18 11 -16 21 3 15 -9 22 -31 18 -5 -1 -6 8 -2 19 3 11 3 20 -2 21
-4 1 -21 2 -38 4 -45 4 -47 4 -40 15 3 6 0 16 -7 23 -13 12 -58 18 -58 7 0 -5
-26 -6 -67 -1 -6 0 -13 11 -15 23 -3 20 -9 23 -55 23 -38 0 -53 -4 -53 -13 0
-10 -3 -10 -15 2 -8 8 -15 19 -15 25 0 6 -7 8 -15 5 -8 -4 -22 -1 -30 6 -9 7
-29 10 -48 8 -40 -7 -57 -1 -51 16 5 12 -28 30 -48 27 -5 -1 -8 9 -8 21 0 18
-6 23 -25 23 -14 0 -25 -3 -25 -7 0 -5 -7 -8 -15 -8 -8 0 -15 -6 -15 -14 0 -8
-6 -16 -12 -19 -10 -3 -10 -9 0 -26 7 -12 8 -21 2 -21 -5 0 -10 -7 -10 -15 0
-8 -5 -15 -10 -15 -7 0 -7 7 0 21 10 17 8 21 -9 26 -12 3 -21 12 -21 20 0 9 5
11 13 7 8 -5 8 -2 -2 9 -7 9 -19 17 -26 17 -8 0 -11 8 -8 18 3 13 -2 18 -19
18 -13 0 -26 -5 -30 -10 -5 -7 -8 -5 -8 4 0 8 -9 21 -20 28 -11 7 -20 19 -20
26 0 10 -10 14 -35 11 -31 -3 -35 0 -35 20 0 18 -4 22 -20 18 -10 -3 -24 -11
-30 -18 -15 -18 -50 -7 -50 16 0 22 -35 27 -43 7 -3 -8 -8 -6 -13 7 -19 48
-65 59 -89 21 -16 -24 -17 -25 -51 -8 -22 11 -34 24 -34 39 0 30 -36 19 -52
-17 -12 -27 -38 -31 -38 -5 0 7 -11 15 -25 17 -17 4 -25 1 -25 -8 0 -8 -7 -14
-15 -14 -8 0 -15 8 -15 19 0 21 -23 44 -34 34 -3 -4 -5 4 -4 17 4 28 -14 36
-35 15 -23 -22 -50 -20 -42 4 5 16 1 19 -25 17 -37 -3 -55 7 -55 31 0 10 -6
17 -12 16 -7 -2 -13 1 -13 5 0 19 -46 10 -55 -10 -6 -12 -18 -23 -27 -24 -14
-2 -17 3 -12 21 5 21 3 23 -18 18 -12 -4 -27 -12 -31 -19 -10 -18 -47 4 -40
23 3 7 1 13 -3 14 -5 0 -17 2 -26 4 -10 2 -22 -4 -27 -12 -10 -18 -36 -6 -36
17 0 8 -10 16 -22 18 -16 2 -23 -2 -23 -12 0 -9 -11 -23 -24 -32 -16 -10 -23
-22 -19 -32 4 -14 3 -15 -5 -2 -6 8 -8 18 -5 23 3 4 -4 11 -15 14 -14 3 -18
11 -15 24 10 36 -56 20 -74 -18 -14 -30 0 -58 23 -49 11 4 11 2 1 -14 -6 -11
-16 -19 -22 -17 -5 2 -16 -3 -23 -12 -10 -14 -11 -12 -6 12 4 16 2 27 -5 27
-6 0 -8 6 -5 14 3 7 -2 16 -10 19 -9 4 -16 13 -16 21 0 13 -37 34 -44 24 -1
-1 -10 -20 -20 -40 -9 -21 -19 -38 -21 -38 -2 0 -4 16 -3 35 1 24 -6 43 -20
58 -12 13 -22 28 -22 34 0 10 -44 23 -76 23 -7 0 -16 -9 -19 -20 -8 -26 -25
-26 -25 1 0 19 -4 20 -37 14 -21 -4 -46 -8 -55 -7 -10 0 -18 -4 -18 -10 0 -6
-3 -8 -7 -5 -7 8 -35 -42 -29 -52 3 -4 -5 -8 -16 -8 -16 -2 -19 3 -15 23 2 13
-1 25 -7 26 -6 0 -15 2 -21 2 -5 1 -15 5 -22 9 -14 9 -27 -8 -18 -23 3 -5 0
-10 -8 -10 -8 0 -14 8 -13 17 0 11 -7 19 -19 21 -15 2 -24 -7 -36 -34 l-16
-38 -37 36 c-20 19 -36 40 -36 45 0 6 -14 10 -30 9 -26 -1 -32 -6 -41 -38 -5
-21 -14 -38 -19 -38 -5 0 -7 7 -4 15 4 9 -3 19 -20 26 -14 7 -26 19 -28 29 -2
10 -9 15 -18 12z m620 -115 c0 -23 -3 -28 -11 -20 -18 18 -20 63 -3 56 8 -3
14 -19 14 -36z m150 -97 c0 -5 -2 -10 -4 -10 -3 0 -8 5 -11 10 -3 6 -1 10 4
10 6 0 11 -4 11 -10z m980 -84 c0 -8 -8 -17 -17 -20 -12 -5 -14 -9 -5 -18 7
-7 12 -16 12 -21 0 -5 -7 -1 -16 7 -8 9 -20 14 -25 11 -5 -4 -9 -2 -9 3 0 5 9
12 20 15 11 3 20 12 20 21 0 9 5 16 10 16 6 0 10 -6 10 -14z m-14150 -86 c0
-5 -7 -10 -16 -10 -8 0 -12 5 -9 10 3 6 10 10 16 10 5 0 9 -4 9 -10z m8295
-746 c29 -19 33 -44 8 -39 -10 2 -23 4 -29 4 -19 2 -26 51 -7 51 2 0 15 -7 28
-16z m-4815 -724 c0 -5 -4 -10 -10 -10 -5 0 -10 5 -10 10 0 6 5 10 10 10 6 0
10 -4 10 -10z m-37 -17 c-7 -2 -21 -2 -30 0 -10 3 -4 5 12 5 17 0 24 -2 18 -5z
m535 -73 c-13 -20 -28 -27 -28 -12 0 10 22 32 32 32 5 0 3 -9 -4 -20z m-150
-55 c-3 -3 -13 7 -23 22 l-17 28 23 -22 c12 -12 20 -25 17 -28z m72 -7 c0 -49
-5 -47 -13 5 -3 20 -2 37 4 37 5 0 9 -19 9 -42z m-59 -38 c26 -14 24 -32 -3
-28 -13 2 -24 11 -26 21 -4 20 2 21 29 7z m5093 -46 c3 -8 2 -12 -4 -9 -6 3
-10 10 -10 16 0 14 7 11 14 -7z m-4993 -34 c5 0 9 6 9 14 0 24 20 29 35 10 22
-30 18 -43 -12 -39 -16 2 -38 4 -50 4 -18 1 -23 7 -23 28 l0 27 16 -22 c8 -12
19 -22 25 -22z m7723 -535 c3 -8 1 -15 -4 -15 -6 0 -10 7 -10 15 0 8 2 15 4
15 2 0 6 -7 10 -15z m1196 -445 c0 -5 -10 -10 -22 -10 -19 0 -20 2 -8 10 19
13 30 13 30 0z m-55 -20 c-3 -5 -11 -10 -16 -10 -6 0 -7 5 -4 10 3 6 11 10 16
10 6 0 7 -4 4 -10z m-6188 -336 c8 -21 -13 -42 -28 -27 -13 13 -5 43 11 43 6
0 13 -7 17 -16z m6450 -100 c-3 -3 -12 -4 -19 -1 -8 3 -5 6 6 6 11 1 17 -2 13
-5z m-6136 -640 c-11 -15 -21 -24 -21 -20 0 12 33 57 37 52 3 -3 -4 -17 -16
-32z m7437 -236 c-3 -7 -13 -15 -23 -16 -10 -2 -15 0 -11 6 3 6 -2 13 -11 15
-10 3 -3 5 15 6 23 1 32 -3 30 -11z m80 -55 c5 -18 -23 -16 -39 3 -11 14 -10
15 11 12 13 -1 25 -9 28 -15z m-5778 -206 c0 -2 -10 -12 -21 -23 -22 -19 -22
-19 -10 4 10 18 31 31 31 19z m-2042 -298 c-2 -6 -8 -10 -13 -10 -5 0 -11 4
-13 10 -2 6 4 11 13 11 9 0 15 -5 13 -11z m6146 -120 c-8 -13 -24 -1 -24 18 0
13 3 13 15 3 8 -7 12 -16 9 -21z m222 -156 c7 -10 14 -26 14 -35 0 -25 -37
-23 -45 2 -3 11 -11 20 -17 20 -6 0 -6 6 2 15 16 20 30 19 46 -2z m-5 -99 c9
-11 2 -9 -18 6 -18 13 -33 25 -33 27 0 8 38 -17 51 -33z m309 -84 c0 -5 -2
-10 -4 -10 -3 0 -8 5 -11 10 -3 6 -1 10 4 10 6 0 11 -4 11 -10z m61 -27 c13
-17 13 -17 -6 -3 -11 8 -22 16 -24 17 -2 2 0 3 6 3 6 0 17 -8 24 -17z m-694
-1745 c17 -13 17 -38 1 -39 -7 -1 -41 0 -75 1 l-63 2 0 -45 c0 -42 3 -48 42
-74 90 -60 115 -148 58 -204 -28 -28 -34 -30 -97 -27 -60 3 -68 5 -68 23 0 17
8 21 60 25 71 6 85 13 85 45 0 46 -17 70 -68 94 -57 27 -62 37 -62 127 0 63 7
77 45 87 29 8 127 -2 142 -15z m957 6 c19 -7 22 -44 4 -45 -7 0 -41 0 -75 1
l-63 1 0 -38 c0 -45 5 -54 45 -77 49 -30 78 -73 83 -127 4 -43 1 -51 -26 -79
-27 -27 -37 -30 -90 -30 -40 0 -64 5 -72 15 -20 24 -2 35 54 35 37 0 61 6 76
18 21 17 22 21 10 56 -10 30 -22 42 -65 63 -46 23 -54 31 -59 62 -15 95 -3
144 39 155 23 5 115 -1 139 -10z m-628 -21 c46 -49 56 -80 56 -172 1 -139 -43
-201 -145 -201 -32 0 -51 6 -69 23 -46 43 -59 73 -65 149 -7 98 7 147 57 192
35 31 47 36 91 36 42 0 54 -5 75 -27z m983 -27 c35 -49 36 -52 36 -146 0 -89
-2 -100 -28 -139 -31 -46 -59 -61 -117 -61 -43 0 -91 33 -114 79 -20 40 -28
141 -15 199 8 42 19 59 52 87 38 33 46 36 96 33 53 -3 56 -5 90 -52z m-639 20
c0 -13 -112 -272 -144 -333 -20 -40 -56 -46 -56 -9 0 31 122 314 149 343 20
23 51 22 51 -1z m1138 2 c-3 -20 -10 -23 -54 -26 l-51 -3 -6 -52 c-4 -29 -10
-98 -13 -155 -8 -113 -22 -148 -49 -121 -14 13 -14 31 -5 150 5 74 10 141 10
151 0 11 -12 18 -40 23 -43 7 -55 18 -46 40 4 12 30 15 131 15 125 0 126 0
123 -22z m-4882 -86 c-18 -16 -18 -16 -6 6 6 13 14 21 18 18 3 -4 -2 -14 -12
-24z m6076 -5 c11 -17 10 -23 -7 -37 -8 -6 -23 -9 -35 -5 -27 9 -60 -3 -60
-21 0 -8 20 -23 45 -34 32 -14 46 -26 51 -46 15 -58 -50 -114 -133 -114 -38 0
-73 19 -73 39 0 19 28 30 61 25 37 -6 89 9 89 26 0 5 -6 10 -13 10 -7 0 -29
11 -50 25 -30 21 -37 32 -37 59 0 39 31 83 63 89 32 7 91 -3 99 -16z m-1054
-3 c9 -16 13 -16 61 2 87 31 101 -19 16 -57 -51 -23 -65 -47 -65 -114 0 -56
-8 -75 -30 -75 -26 0 -30 19 -30 146 0 106 1 114 20 114 10 0 23 -7 28 -16z
m417 -19 c29 -28 30 -36 10 -75 -25 -49 -61 -57 -147 -33 -15 3 -16 0 -9 -19
10 -28 46 -48 87 -48 40 0 62 -23 44 -45 -15 -18 -58 -19 -112 -3 -51 15 -78
58 -78 126 0 43 5 57 31 87 29 33 35 35 90 35 50 0 64 -4 84 -25z m313 9 c33
-23 30 -73 -7 -108 -27 -26 -31 -27 -82 -18 -30 6 -55 9 -57 7 -2 -2 2 -13 8
-25 13 -24 48 -40 89 -40 16 0 35 -7 42 -16 11 -14 10 -18 -6 -30 -22 -17 -56
-18 -108 -3 -52 14 -77 57 -77 129 0 48 4 60 29 88 27 29 35 32 88 32 37 0 67
-6 81 -16z"/>
<path d="M13090 448 c-43 -22 -63 -78 -55 -153 10 -90 38 -130 89 -129 54 2
67 20 79 112 10 75 9 82 -14 128 -26 54 -53 65 -99 42z"/>
<path d="M14052 447 c-42 -24 -54 -53 -53 -133 1 -112 36 -163 102 -149 44 10
60 43 65 132 5 69 2 83 -18 118 -26 44 -56 54 -96 32z"/>
<path d="M15120 321 c0 -11 67 -24 80 -16 6 4 8 11 5 16 -8 12 -85 12 -85 0z"/>
<path d="M15440 321 c0 -10 58 -23 71 -15 21 13 6 24 -31 24 -22 0 -40 -4 -40
-9z"/>
<path d="M15776 6983 c-10 -10 -7 -21 8 -26 8 -3 17 0 20 8 5 14 -17 28 -28
18z"/>
</g>
</svg>
